<?xml version="1.0" encoding="UTF-8" standalone="no"?>
<!-- Created with Inkscape (http://www.inkscape.org/) -->

<svg
   width="210mm"
   height="297mm"
   viewBox="0 0 210 297"
   version="1.1"
   id="svg5"
   inkscape:version="1.2.2 (b0a8486541, 2022-12-01)"
   sodipodi:docname="bin_layout_example.svg"
   xmlns:inkscape="http://www.inkscape.org/namespaces/inkscape"
   xmlns:sodipodi="http://sodipodi.sourceforge.net/DTD/sodipodi-0.dtd"
   xmlns="http://www.w3.org/2000/svg"
   xmlns:svg="http://www.w3.org/2000/svg">
  <sodipodi:namedview
     id="namedview7"
     pagecolor="#ffffff"
     bordercolor="#000000"
     borderopacity="0.25"
     inkscape:showpageshadow="2"
     inkscape:pageopacity="0.0"
     inkscape:pagecheckerboard="0"
     inkscape:deskcolor="#d1d1d1"
     inkscape:document-units="mm"
     showgrid="false"
     inkscape:zoom="0.64274112"
     inkscape:cx="402.96162"
     inkscape:cy="476.08593"
     inkscape:window-width="1920"
     inkscape:window-height="995"
     inkscape:window-x="0"
     inkscape:window-y="0"
     inkscape:window-maximized="1"
     inkscape:current-layer="layer1" />
  <defs
     id="defs2" />
  <g
     inkscape:label="layout"
     inkscape:groupmode="layer"
     id="layer1"
     sodipodi:insensitive="true"
     style="display:inline">
    <rect
       style="fill:#808080;stroke:#000000;stroke-width:0.745412"
       id="rect236"
       width="140.7771"
       height="246.17082"
       x="34.956459"
       y="-0.043537386" />
    <rect
       style="display:inline;fill:#000000;stroke:#000000;stroke-width:1"
       id="rect504"
       width="11.22131"
       height="297"
       x="0"
       y="0" />
    <rect
       style="display:inline;fill:#000000;stroke:#000000;stroke-width:1"
       id="rect506"
       width="9.7333632"
       height="297"
       x="200.26663"
       y="-8.3923342e-06" />
    <g
       id="g979">
      <path
         style="fill:#aa8800;stroke:#000000;stroke-width:1"
         d="M 5,297 35,246.99999 H 175 L 205,297 H 5"
         id="path562"
         sodipodi:nodetypes="ccccc" />
      <path
         style="fill:#aa8800;stroke:#000000;stroke-width:1"
         d="M 5.1178345,195.90769 35.117835,145.90768 H 175.11783 l 30,50.00001 H 5.1178345"
         id="path562-7"
         sodipodi:nodetypes="ccccc" />
      <path
         style="fill:#aa8800;stroke:#000000;stroke-width:1"
         d="m 5.117832,89.555516 30,-50.00001 H 175.11784 l 30,50.00001 H 5.117832"
         id="path562-5"
         sodipodi:nodetypes="ccccc" />
    </g>
  </g>
  <g
     inkscape:groupmode="layer"
     id="layer2"
     inkscape:label="bins">
    <path
       id="path1085"
       style="fill:#214478;stroke:#000000;stroke-width:0.794368"
       d="M 124.88747 46.278312 L 131.84518 80.960433 L 190.71187 80.960433 L 169.49198 46.446777 L 124.88747 46.278312 z "
       inkscape:label="3-3" />
    <path
       id="path1090"
       style="fill:#214478;stroke:#000000;stroke-width:0.794368"
       d="M 80.282438 46.10933 C 79.430972 50.2798 78.664696 54.019945 78.000407 57.250252 C 77.30386 60.637425 76.703939 63.541027 76.187081 66.029561 C 75.670222 68.518097 75.236847 70.591985 74.872949 72.320133 C 74.509053 74.048283 74.214543 75.430398 73.97688 76.536414 C 73.739217 77.642428 73.557964 78.472264 73.419808 79.094397 C 73.35073 79.405464 73.292804 79.664377 73.243591 79.880396 C 73.194378 80.096413 73.154323 80.269243 73.121635 80.407495 C 73.088946 80.545747 73.063625 80.649605 73.04412 80.727372 C 73.024615 80.805139 73.010891 80.85714 73.001229 80.891703 C 72.981904 80.960829 72.978491 80.960433 72.978491 80.960433 L 131.84518 80.960433 L 124.88747 46.278312 L 80.282438 46.10933 z "
       inkscape:label="3-2" />
    <path
       id="path562-5-3"
       style="fill:#214478;stroke:#000000;stroke-width:0.794368"
       d="M 80.282438 46.10933 L 42.413949 45.966187 L 20.346562 80.960433 L 72.978491 80.960433 C 72.978491 80.960433 72.981904 80.960829 73.001229 80.891703 C 73.010891 80.85714 73.024615 80.805139 73.04412 80.727372 C 73.063625 80.649605 73.088946 80.545747 73.121635 80.407495 C 73.154323 80.269243 73.194378 80.096414 73.243591 79.880396 C 73.292804 79.664377 73.35073 79.405464 73.419808 79.094397 C 73.557964 78.472263 73.739217 77.64243 73.97688 76.536414 C 74.214543 75.430397 74.509052 74.048284 74.872949 72.320133 C 75.236847 70.591983 75.670222 68.518099 76.187081 66.029561 C 76.70394 63.541024 77.303859 60.637428 78.000407 57.250252 C 78.664697 54.019941 79.430971 50.279804 80.282438 46.10933 z "
       inkscape:label="3-1" />
    <path
       id="path1085-6"
       style="fill:#214478;stroke:#000000;stroke-width:0.794368"
       d="m 125.10701,153.56754 6.95771,34.68212 h 58.86669 L 169.71152,153.736 Z"
       inkscape:label="2-3" />
    <path
       id="path1090-2"
       style="fill:#214478;stroke:#000000;stroke-width:0.794368"
       d="m 80.501981,153.39855 c -0.85146,4.17047 -1.61774,7.91062 -2.28203,11.14093 -0.69655,3.38717 -1.29647,6.29077 -1.81333,8.7793 -0.516854,2.48854 -0.950229,4.56243 -1.314127,6.29058 -0.363896,1.72815 -0.658406,3.11026 -0.896069,4.21628 -0.237663,1.10601 -0.418916,1.93585 -0.557072,2.55798 -0.06908,0.31107 -0.127004,0.56998 -0.176217,0.786 -0.04921,0.21602 -0.08927,0.38885 -0.121956,0.5271 -0.03269,0.13825 -0.05801,0.24211 -0.07751,0.31988 -0.01951,0.0778 -0.03323,0.12976 -0.04289,0.16433 -0.01932,0.0691 -0.02274,0.0687 -0.02274,0.0687 h 58.86668 l -6.95771,-34.68212 z"
       inkscape:label="2-2" />
    <path
       id="path562-5-3-5"
       style="fill:#214478;stroke:#000000;stroke-width:0.794368"
       d="m 80.501981,153.39855 -37.868487,-0.14314 -22.067387,34.99425 h 52.631929 c 0,0 0.0034,3.9e-4 0.02274,-0.0687 0.0097,-0.0346 0.02339,-0.0866 0.04289,-0.16433 0.0195,-0.0778 0.04483,-0.18163 0.07751,-0.31988 0.03269,-0.13825 0.07274,-0.31108 0.121956,-0.5271 0.04921,-0.21602 0.107139,-0.47493 0.176217,-0.786 0.138156,-0.62213 0.319409,-1.45197 0.557072,-2.55798 0.237663,-1.10602 0.532172,-2.48813 0.896069,-4.21628 0.363898,-1.72815 0.797273,-3.80204 1.314131,-6.29058 0.51686,-2.48853 1.11678,-5.39213 1.81333,-8.7793 0.66429,-3.23032 1.43056,-6.97045 2.28203,-11.14093 z"
       inkscape:label="2-1" />
    <path
       id="path1085-1"
       style="fill:#214478;stroke:#000000;stroke-width:0.794368"
       d="m 122.86283,254.65985 6.95771,34.68212 h 58.86669 l -21.21989,-34.51365 z"
       inkscape:label="1-3" />
    <path
       id="path1090-27"
       style="fill:#214478;stroke:#000000;stroke-width:0.794368"
       d="m 78.2578,254.49087 c -0.851466,4.17047 -1.617742,7.91061 -2.282031,11.14092 -0.696547,3.38717 -1.296468,6.29078 -1.813326,8.77931 -0.516859,2.48854 -0.950234,4.56242 -1.314132,6.29057 -0.363896,1.72815 -0.658406,3.11027 -0.896069,4.21628 -0.237663,1.10602 -0.418916,1.93585 -0.557072,2.55799 -0.06908,0.31106 -0.127004,0.56998 -0.176217,0.786 -0.04921,0.21601 -0.08927,0.38884 -0.121956,0.52709 -0.03269,0.13826 -0.05801,0.24211 -0.07751,0.31988 -0.01951,0.0778 -0.03323,0.12977 -0.04289,0.16433 -0.01932,0.0691 -0.02274,0.0687 -0.02274,0.0687 h 58.866683 l -6.95771,-34.68209 z"
       inkscape:label="1-2" />
    <path
       id="path562-5-3-9"
       style="fill:#214478;stroke:#000000;stroke-width:0.794368"
       d="m 78.2578,254.49087 -37.868489,-0.14314 -22.067387,34.99424 h 52.631929 c 0,0 0.0034,4e-4 0.02274,-0.0687 0.0097,-0.0346 0.02339,-0.0866 0.04289,-0.16433 0.0195,-0.0778 0.04483,-0.18162 0.07751,-0.31988 0.03269,-0.13825 0.07274,-0.31108 0.121956,-0.52709 0.04921,-0.21602 0.107139,-0.47494 0.176217,-0.786 0.138156,-0.62214 0.319409,-1.45197 0.557072,-2.55799 0.237663,-1.10601 0.532172,-2.48813 0.896069,-4.21628 0.363898,-1.72815 0.797273,-3.80203 1.314132,-6.29057 0.516859,-2.48854 1.116778,-5.39213 1.813326,-8.77931 0.66429,-3.23031 1.430564,-6.97045 2.282031,-11.14092 z"
       inkscape:label="1-1" />
  </g>
  <g
     inkscape:groupmode="layer"
     id="layer3"
     inkscape:label="decorations">
    <text
       xml:space="preserve"
       style="font-style:italic;font-size:7.05556px;font-family:'Arial Black';-inkscape-font-specification:'Arial Black,  Italic';fill:#cccccc;stroke:none;stroke-width:1"
       x="47.933495"
       y="271.41132"
       id="text1273"><tspan
         sodipodi:role="line"
         id="tspan1271"
         style="fill:#cccccc;stroke:none;stroke-width:1"
         x="47.933495"
         y="271.41132">1-1</tspan></text>
    <text
       xml:space="preserve"
       style="font-style:italic;font-size:7.05556px;font-family:'Arial Black';-inkscape-font-specification:'Arial Black,  Italic';fill:#cccccc;stroke:none;stroke-width:1"
       x="95.311241"
       y="273.97964"
       id="text1273-0"><tspan
         sodipodi:role="line"
         id="tspan1271-9"
         style="fill:#cccccc;stroke:none;stroke-width:1"
         x="95.311241"
         y="273.97964">1-2</tspan></text>
    <text
       xml:space="preserve"
       style="font-style:italic;font-size:7.05556px;font-family:'Arial Black';-inkscape-font-specification:'Arial Black,  Italic';fill:#cccccc;stroke:none;stroke-width:1"
       x="149.68134"
       y="274.52524"
       id="text1273-3"><tspan
         sodipodi:role="line"
         id="tspan1271-6"
         style="fill:#cccccc;stroke:none;stroke-width:1"
         x="149.68134"
         y="274.52524">1-3</tspan></text>
    <text
       xml:space="preserve"
       style="font-style:italic;font-size:7.05556px;font-family:'Arial Black';-inkscape-font-specification:'Arial Black,  Italic';fill:#cccccc;stroke:none;stroke-width:1"
       x="48.212547"
       y="65.988152"
       id="text1273-7"><tspan
         sodipodi:role="line"
         id="tspan1271-5"
         style="fill:#cccccc;stroke:none;stroke-width:1"
         x="48.212547"
         y="65.988152">3-1</tspan></text>
    <text
       xml:space="preserve"
       style="font-style:italic;font-size:7.05556px;font-family:'Arial Black';-inkscape-font-specification:'Arial Black,  Italic';fill:#cccccc;stroke:none;stroke-width:1"
       x="149.08282"
       y="66.143715"
       id="text1273-9"><tspan
         sodipodi:role="line"
         id="tspan1271-20"
         style="fill:#cccccc;stroke:none;stroke-width:1"
         x="149.08282"
         y="66.143715">3-3</tspan></text>
    <text
       xml:space="preserve"
       style="font-style:italic;font-size:7.05556px;font-family:'Arial Black';-inkscape-font-specification:'Arial Black,  Italic';fill:#cccccc;stroke:none;stroke-width:1"
       x="96.647804"
       y="66.059525"
       id="text1273-2"><tspan
         sodipodi:role="line"
         id="tspan1271-3"
         style="fill:#cccccc;stroke:none;stroke-width:1"
         x="96.647804"
         y="66.059525">3-2</tspan></text>
    <text
       xml:space="preserve"
       style="font-style:italic;font-size:7.05556px;font-family:'Arial Black';-inkscape-font-specification:'Arial Black,  Italic';fill:#cccccc;stroke:none;stroke-width:1"
       x="47.945553"
       y="170.84607"
       id="text1273-06"><tspan
         sodipodi:role="line"
         id="tspan1271-2"
         style="fill:#cccccc;stroke:none;stroke-width:1"
         x="47.945553"
         y="170.84607">2-1</tspan></text>
    <text
       xml:space="preserve"
       style="font-style:italic;font-size:7.05556px;font-family:'Arial Black';-inkscape-font-specification:'Arial Black,  Italic';fill:#cccccc;stroke:none;stroke-width:1"
       x="149.07765"
       y="173.43294"
       id="text1273-8"><tspan
         sodipodi:role="line"
         id="tspan1271-7"
         style="fill:#cccccc;stroke:none;stroke-width:1"
         x="149.07765"
         y="173.43294">2-3</tspan></text>
    <text
       xml:space="preserve"
       style="font-style:italic;font-size:7.05556px;font-family:'Arial Black';-inkscape-font-specification:'Arial Black,  Italic';fill:#cccccc;stroke:none;stroke-width:1"
       x="98.77343"
       y="173.3918"
       id="text1273-6"><tspan
         sodipodi:role="line"
         id="tspan1271-1"
         style="fill:#cccccc;stroke:none;stroke-width:1"
         x="98.77343"
         y="173.3918">2-2</tspan></text>
  </g>
</svg>
